<svg id="bank" xmlns="http://www.w3.org/2000/svg" width="22.656" height="22.656" viewBox="0 0 22.656 22.656">
  <path id="Vector" d="M9.789.057l8.5,3.4a1.022,1.022,0,0,1,.595.878V7.467a.947.947,0,0,1-.944.944H.944A.947.947,0,0,1,0,7.467V4.333a1.022,1.022,0,0,1,.595-.878l8.5-3.4A1.105,1.105,0,0,1,9.789.057Z" transform="translate(1.888 1.973)" fill="none" stroke="#363443" stroke-linecap="round" stroke-linejoin="round" stroke-width="1.5"/>
  <path id="Vector-2" data-name="Vector" d="M18.88,3.776H0V.944A.947.947,0,0,1,.944,0H17.936a.947.947,0,0,1,.944.944Z" transform="translate(1.888 16.992)" fill="none" stroke="#363443" stroke-linecap="round" stroke-linejoin="round" stroke-width="1.5"/>
  <path id="Vector-3" data-name="Vector" d="M0,6.608V0" transform="translate(3.776 10.384)" fill="none" stroke="#363443" stroke-linecap="round" stroke-linejoin="round" stroke-width="1.5" opacity="0.4"/>
  <path id="Vector-4" data-name="Vector" d="M0,6.608V0" transform="translate(7.552 10.384)" fill="none" stroke="#363443" stroke-linecap="round" stroke-linejoin="round" stroke-width="1.5" opacity="0.4"/>
  <path id="Vector-5" data-name="Vector" d="M0,6.608V0" transform="translate(11.328 10.384)" fill="none" stroke="#363443" stroke-linecap="round" stroke-linejoin="round" stroke-width="1.5" opacity="0.4"/>
  <path id="Vector-6" data-name="Vector" d="M0,6.608V0" transform="translate(15.104 10.384)" fill="none" stroke="#363443" stroke-linecap="round" stroke-linejoin="round" stroke-width="1.5" opacity="0.4"/>
  <path id="Vector-7" data-name="Vector" d="M0,6.608V0" transform="translate(18.88 10.384)" fill="none" stroke="#363443" stroke-linecap="round" stroke-linejoin="round" stroke-width="1.5" opacity="0.4"/>
  <path id="Vector-8" data-name="Vector" d="M0,0H20.768" transform="translate(0.944 20.768)" fill="none" stroke="#363443" stroke-linecap="round" stroke-linejoin="round" stroke-width="1.5"/>
  <path id="Vector-9" data-name="Vector" d="M2.832,1.416A1.416,1.416,0,1,1,1.416,0,1.416,1.416,0,0,1,2.832,1.416Z" transform="translate(9.912 5.192)" fill="none" stroke="#363443" stroke-linecap="round" stroke-linejoin="round" stroke-width="1.5" opacity="0.4"/>
  <path id="Vector-10" data-name="Vector" d="M0,0H22.656V22.656H0Z" fill="none" opacity="0"/>
</svg>
