<svg id="calendar-2" xmlns="http://www.w3.org/2000/svg" width="22.656" height="22.656" viewBox="0 0 22.656 22.656">
  <path id="Vector" d="M0,0V2.832" transform="translate(7.552 1.888)" fill="none" stroke="#363443" stroke-linecap="round" stroke-linejoin="round" stroke-width="1.5"/>
  <path id="Vector-2" data-name="Vector" d="M0,0V2.832" transform="translate(15.104 1.888)" fill="none" stroke="#363443" stroke-linecap="round" stroke-linejoin="round" stroke-width="1.5"/>
  <path id="Vector-3" data-name="Vector" d="M0,0H16.048" transform="translate(3.304 8.581)" fill="none" stroke="#363443" stroke-linecap="round" stroke-linejoin="round" stroke-width="1.5" opacity="0.4"/>
  <path id="Vector-4" data-name="Vector" d="M16.992,4.72v8.024c0,2.832-1.416,4.72-4.72,4.72H4.72c-3.3,0-4.72-1.888-4.72-4.72V4.72C0,1.888,1.416,0,4.72,0h7.552C15.576,0,16.992,1.888,16.992,4.72Z" transform="translate(2.832 3.304)" fill="none" stroke="#363443" stroke-linecap="round" stroke-linejoin="round" stroke-width="1.5"/>
  <path id="Vector-5" data-name="Vector" d="M0,0H22.656V22.656H0Z" fill="none" opacity="0"/>
  <path id="Vector-6" data-name="Vector" d="M.495.5H.5" transform="translate(10.829 12.433)" fill="none" stroke="#363443" stroke-linecap="round" stroke-linejoin="round" stroke-width="2" opacity="0.4"/>
  <path id="Vector-7" data-name="Vector" d="M.495.5H.5" transform="translate(7.335 12.433)" fill="none" stroke="#363443" stroke-linecap="round" stroke-linejoin="round" stroke-width="2" opacity="0.4"/>
  <path id="Vector-8" data-name="Vector" d="M0,0H.008" transform="translate(7.83 15.765)" fill="none" stroke="#363443" stroke-linecap="round" stroke-linejoin="round" stroke-width="2" opacity="0.4"/>
</svg>
