<svg id="element-equal" xmlns="http://www.w3.org/2000/svg" width="22.656" height="22.656" viewBox="0 0 22.656 22.656">
  <path id="Vector" d="M8.024,5.919V2.105C8.024.6,7.42,0,5.919,0H2.105C.6,0,0,.6,0,2.105V5.919c0,1.5.6,2.105,2.105,2.105H5.919C7.42,8.024,8.024,7.42,8.024,5.919Z" transform="translate(12.744 1.888)" fill="none" stroke="#363443" stroke-linecap="round" stroke-linejoin="round" stroke-width="1.5"/>
  <path id="Vector-2" data-name="Vector" d="M8.024,6.155V1.869C8.024.538,7.42,0,5.919,0H2.105C.6,0,0,.538,0,1.869V6.146c0,1.34.6,1.869,2.105,1.869H5.919C7.42,8.024,8.024,7.486,8.024,6.155Z" transform="translate(1.888 1.888)" fill="none" stroke="#363443" stroke-linecap="round" stroke-linejoin="round" stroke-width="1.5"/>
  <path id="Vector-3" data-name="Vector" d="M8.024,5.919V2.105C8.024.6,7.42,0,5.919,0H2.105C.6,0,0,.6,0,2.105V5.919c0,1.5.6,2.105,2.105,2.105H5.919C7.42,8.024,8.024,7.42,8.024,5.919Z" transform="translate(1.888 12.744)" fill="none" stroke="#363443" stroke-linecap="round" stroke-linejoin="round" stroke-width="1.5"/>
  <path id="Vector-4" data-name="Vector" d="M0,0H5.664" transform="translate(14.16 14.632)" fill="none" stroke="#363443" stroke-linecap="round" stroke-width="1.5" opacity="0.4"/>
  <path id="Vector-5" data-name="Vector" d="M0,0H5.664" transform="translate(14.16 18.408)" fill="none" stroke="#363443" stroke-linecap="round" stroke-width="1.5" opacity="0.4"/>
  <path id="Vector-6" data-name="Vector" d="M0,0H22.656V22.656H0Z" fill="none" opacity="0"/>
</svg>
