<svg id="coin" xmlns="http://www.w3.org/2000/svg" width="22.656" height="22.656" viewBox="0 0 22.656 22.656">
  <g id="Group_567" data-name="Group 567" transform="translate(7.552 6.051)" opacity="0.4">
    <path id="Vector" d="M0,3.965A1.3,1.3,0,0,0,1.256,5.286H2.672a1.127,1.127,0,0,0,1.1-1.152,1,1,0,0,0-.746-1.1L.755,2.247A1,1,0,0,1,0,1.152,1.127,1.127,0,0,1,1.1,0H2.511A1.3,1.3,0,0,1,3.776,1.322" transform="translate(0 0.746)" fill="none" stroke="#363443" stroke-linecap="round" stroke-linejoin="round" stroke-width="1.5"/>
    <path id="Vector-2" data-name="Vector" d="M0,0V.7" transform="translate(1.888 6.079)" fill="none" stroke="#363443" stroke-linecap="round" stroke-linejoin="round" stroke-width="1.5"/>
    <path id="Vector-3" data-name="Vector" d="M0,0V.736" transform="translate(1.888)" fill="none" stroke="#363443" stroke-linecap="round" stroke-linejoin="round" stroke-width="1.5"/>
  </g>
  <path id="Vector-4" data-name="Vector" d="M15.085,7.543A7.543,7.543,0,1,1,7.543,0,7.543,7.543,0,0,1,15.085,7.543Z" transform="translate(1.888 1.888)" fill="none" stroke="#363443" stroke-linecap="round" stroke-linejoin="round" stroke-width="1.5"/>
  <path id="Vector-5" data-name="Vector" d="M0,6.495A4.675,4.675,0,1,0,6.542,0" transform="translate(12.253 12.272)" fill="none" stroke="#363443" stroke-linecap="round" stroke-linejoin="round" stroke-width="1.5" opacity="0.4"/>
  <path id="Vector-6" data-name="Vector" d="M0,0H22.656V22.656H0Z" fill="none" opacity="0"/>
</svg>
