<svg id="eye" xmlns="http://www.w3.org/2000/svg" width="23.391" height="23.391" viewBox="0 0 23.391 23.391">
  <path id="Vector" d="M6.978,3.489A3.489,3.489,0,1,1,3.489,0,3.486,3.486,0,0,1,6.978,3.489Z" transform="translate(8.206 8.206)" fill="none" stroke="#363443" stroke-linecap="round" stroke-linejoin="round" stroke-width="1.5" opacity="0.4"/>
  <path id="Vector-2" data-name="Vector" d="M9.537,16.13c3.44,0,6.647-2.027,8.879-5.536a5.19,5.19,0,0,0,0-5.058C16.183,2.027,12.977,0,9.537,0S2.89,2.027.658,5.536a5.19,5.19,0,0,0,0,5.058C2.89,14.1,6.1,16.13,9.537,16.13Z" transform="translate(2.159 3.626)" fill="none" stroke="#363443" stroke-linecap="round" stroke-linejoin="round" stroke-width="1.5"/>
  <path id="Vector-3" data-name="Vector" d="M0,0H23.391V23.391H0Z" transform="translate(23.391 23.391) rotate(180)" fill="none" opacity="0"/>
</svg>
