<svg id="profile-2user" xmlns="http://www.w3.org/2000/svg" width="22.781" height="22.781" viewBox="0 0 22.781 22.781">
  <path id="Vector" d="M4.366,8.42a1.726,1.726,0,0,0-.313,0,4.219,4.219,0,1,1,.313,0Z" transform="translate(4.328 1.898)" fill="none" stroke="#363443" stroke-linecap="round" stroke-linejoin="round" stroke-width="1.5"/>
  <path id="Vector-2" data-name="Vector" d="M.123,0A3.32,3.32,0,0,1,3.446,3.322a3.327,3.327,0,0,1-3.2,3.322,1.072,1.072,0,0,0-.247,0" transform="translate(15.453 3.797)" fill="none" stroke="#363443" stroke-linecap="round" stroke-linejoin="round" stroke-width="1.5" opacity="0.4"/>
  <path id="Vector-3" data-name="Vector" d="M1.723,1.3c-2.3,1.538-2.3,4.044,0,5.572a9.27,9.27,0,0,0,9.5,0c2.3-1.538,2.3-4.044,0-5.572A9.314,9.314,0,0,0,1.723,1.3Z" transform="translate(2.226 12.518)" fill="none" stroke="#363443" stroke-linecap="round" stroke-linejoin="round" stroke-width="1.5"/>
  <path id="Vector-4" data-name="Vector" d="M0,5.7a4.592,4.592,0,0,0,1.86-.826,2.4,2.4,0,0,0,0-4.053A4.721,4.721,0,0,0,.028,0" transform="translate(17.409 13.289)" fill="none" stroke="#363443" stroke-linecap="round" stroke-linejoin="round" stroke-width="1.5" opacity="0.4"/>
  <path id="Vector-5" data-name="Vector" d="M0,0H22.781V22.781H0Z" transform="translate(22.781 22.781) rotate(180)" fill="none" opacity="0"/>
</svg>
