<svg id="call-calling" xmlns="http://www.w3.org/2000/svg" width="21.93" height="21.93" viewBox="0 0 21.93 21.93">
    <path id="Vector" d="M3.993,4.706a.7.7,0,0,1-.7-.7,3.181,3.181,0,0,0-.9-1.654A2.55,2.55,0,0,0,.7,1.407.7.7,0,0,1,.7,0,3.884,3.884,0,0,1,3.417,1.38,4.312,4.312,0,0,1,4.706,3.993.714.714,0,0,1,3.993,4.706Z" transform="translate(12.107 5.117)" fill="#c08700" />
    <path id="Vector-2" data-name="Vector" d="M7.283,8a.7.7,0,0,1-.7-.7A5.883,5.883,0,0,0,.7,1.416.708.708,0,0,1,.694,0,7.3,7.3,0,0,1,7.986,7.292.71.71,0,0,1,7.283,8Z" transform="translate(12.116 1.828)" fill="#c08700" />
    <path id="Vector-3" data-name="Vector" d="M8.946,11.157,5.958,14.145q-.493-.439-.959-.9a25.963,25.963,0,0,1-2.549-2.988A16.29,16.29,0,0,1,.658,7.136,7.7,7.7,0,0,1,0,4.148,4.727,4.727,0,0,1,.329,2.385,4.206,4.206,0,0,1,1.38.859,2.677,2.677,0,0,1,3.28,0a1.717,1.717,0,0,1,.74.164,1.49,1.49,0,0,1,.612.512l2.12,2.988a3.127,3.127,0,0,1,.366.64,1.444,1.444,0,0,1,.128.557,1.24,1.24,0,0,1-.192.649,3.108,3.108,0,0,1-.512.649l-.694.722a.489.489,0,0,0-.146.366.83.83,0,0,0,.027.21c.027.073.055.128.073.183a7.583,7.583,0,0,0,.85,1.17c.411.475.85.959,1.325,1.444C8.306,10.572,8.626,10.883,8.946,11.157Z" transform="translate(1.828 1.828)" fill="#c08700" opacity="0.4" />
    <path id="Vector-4" data-name="Vector" d="M11.3,3.92a2.321,2.321,0,0,1-.137.777,2.232,2.232,0,0,1-.091.219,3.77,3.77,0,0,1-.621.932,4.119,4.119,0,0,1-1.5,1.078c-.009,0-.018.009-.027.009a4.616,4.616,0,0,1-1.754.338,7.615,7.615,0,0,1-2.979-.667A16.049,16.049,0,0,1,1.051,4.8C.694,4.532.338,4.267,0,3.984L2.988,1a5.134,5.134,0,0,0,.676.439c.046.018.1.046.164.073a.631.631,0,0,0,.228.037.5.5,0,0,0,.375-.155L5.126.7A2.8,2.8,0,0,1,5.784.192,1.217,1.217,0,0,1,6.433,0,1.458,1.458,0,0,1,6.99.119a3.534,3.534,0,0,1,.64.356l3.025,2.147a1.386,1.386,0,0,1,.5.585A1.875,1.875,0,0,1,11.3,3.92Z" transform="translate(8.772 12.829)" fill="#c08700" />
    <path id="Vector-5" data-name="Vector" d="M0,0H21.93V21.93H0Z" fill="none" opacity="0" />
</svg>