<svg xmlns="http://www.w3.org/2000/svg" width="21.677" height="21.367" viewBox="0 0 21.677 21.367">
  <path id="Vector" d="M0,2.632V0L1.987,1.987" transform="translate(7.703 9.69)" fill="none" stroke="#8a8a8a" stroke-linecap="round" stroke-linejoin="round" stroke-width="1.5"/>
  <path id="Vector-2" data-name="Vector" d="M0,.993V0" transform="translate(7.703 14.657)" fill="none" stroke="#8a8a8a" stroke-linecap="round" stroke-linejoin="round" stroke-width="1.5"/>
  <path id="Vector-3" data-name="Vector" d="M1.987,0,0,1.987" transform="translate(5.717 9.69)" fill="none" stroke="#8a8a8a" stroke-linecap="round" stroke-linejoin="round" stroke-width="1.5"/>
  <path id="Vector-4" data-name="Vector" d="M0,6.953C0,1.987,1.987,0,6.953,0H11.92" transform="translate(0.75 0.75)" fill="none" stroke="#8a8a8a" stroke-linecap="round" stroke-linejoin="round" stroke-width="1.5"/>
  <path id="Vector-5" data-name="Vector" d="M19.867,0V4.967c0,4.967-1.987,6.953-6.953,6.953H6.953C1.987,11.92,0,9.933,0,4.967V2.96" transform="translate(0.75 8.697)" fill="none" stroke="#8a8a8a" stroke-linecap="round" stroke-linejoin="round" stroke-width="1.5"/>
  <path id="Vector-6" data-name="Vector" d="M3.973,7.947C.993,7.947,0,6.953,0,3.973V0L7.947,7.947" transform="translate(12.67 0.75)" fill="none" stroke="#8a8a8a" stroke-linecap="round" stroke-linejoin="round" stroke-width="1.5"/>
</svg>
