<svg xmlns="http://www.w3.org/2000/svg" width="187" height="61" viewBox="0 0 187 61">
    <g id="noun-law-1055409" transform="translate(68.199 -9.486)">
        <path id="Path_53454" data-name="Path 53454" d="M210.263,106.153A5.475,5.475,0,0,0,208.4,102.1q-8.392-8.981-16.746-18c-.173-.187-.339-.38-.451-.507.916-1.392,1.81-2.745,2.7-4.1a1.408,1.408,0,0,0-.241-1.946q-3.865-4.274-7.616-8.651a1.3,1.3,0,0,0-1.716-.46,29.692,29.692,0,0,0-4.243,2.252,21.758,21.758,0,0,0-7.13,7.612,1.559,1.559,0,0,0,.263,2.046q3.833,4.228,7.539,8.572a1.378,1.378,0,0,0,1.8.494c1.458-.664,2.894-1.376,4.478-2.133,1.577,1.9,3.278,3.947,4.971,6q5.592,6.774,11.178,13.552c.232.282.477.555.732.817,1.926,1.971,4.4,1.7,5.9-.642.1-.151.219-.286.329-.428l.125-.422Z" transform="translate(-91.467 -46.749)" fill="#fff" />
        <path id="Path_53455" data-name="Path 53455" d="M336.785,21.664l6.967,7.858a2.716,2.716,0,1,0,4.065-3.6L340.85,18.06a2.716,2.716,0,0,0-4.065,3.6Z" transform="translate(-240.872 0)" fill="#fff" />
        <path id="Path_53456" data-name="Path 53456" d="M115.812,217.582l6.967,7.858a2.716,2.716,0,0,0,4.065-3.6l-6.967-7.858a2.716,2.716,0,1,0-4.065,3.6Z" transform="translate(-38.841 -179.124)" fill="#fff" />
        <path id="Path_53457" data-name="Path 53457" d="M100.918,481.089H91.805a2.6,2.6,0,0,1-2.826-3.331,3.949,3.949,0,0,1,.518-1.4,2.093,2.093,0,0,1,1.945-.909q4.28,0,8.56,0,5.018,0,10.035-.005c2.1,0,3.194,1.308,2.853,3.4a2.348,2.348,0,0,1-1.759,2.169,3.556,3.556,0,0,1-.842.071q-4.684.007-9.37,0Z" transform="translate(-14.878 -419.015)" fill="#fff" />
        <path id="Path_53458" data-name="Path 53458" d="M139.213,421.4q-3.337,0-6.674,0a1.449,1.449,0,0,1-1.645-1.376,2.959,2.959,0,0,1,.178-1.771,1.292,1.292,0,0,1,1.184-.8c.2-.01.393,0,.59,0H145.9a1.513,1.513,0,0,1,1.74,1.6,4.258,4.258,0,0,1-.072,1.169,1.363,1.363,0,0,1-1.5,1.186q-3.43.007-6.859,0Z" transform="translate(-53.203 -365.987)" fill="#fff" opacity="0.44" />
    </g>
    <text id="وظيفتى_._LAW" data-name="وظيفتى . LAW" transform="translate(131 26)" fill="#fff" font-size="20" font-family="Cairo-Bold, Cairo" font-weight="700">
        <tspan x="-130.06" y="0">وظيفتى</tspan>
        <tspan y="0" xml:space="preserve"> . LAW</tspan>
    </text>
    <text id="لإعــــلانـات_التـــــوظـيف" data-name="لإعــــلانـات التـــــوظـيف" transform="translate(130 54)" fill="#fff" font-size="13" font-family="Cairo-SemiBold, Cairo" font-weight="600">
        <tspan x="-128.154" y="0">لإعــــلانـات التـــــوظـيف</tspan>
    </text>
</svg>
  