<svg xmlns="http://www.w3.org/2000/svg" width="1574" height="537" viewBox="0 0 1574 537">
    <g id="Group_1524" data-name="Group 1524" transform="translate(146 -1121)">
      <rect id="Rectangle_3786" data-name="Rectangle 3786" width="147" height="148" transform="translate(-67 1173)" fill="#fff" opacity="0.16"/>
      <rect id="Rectangle_3789" data-name="Rectangle 3789" width="147" height="148" transform="translate(-105 1399)" fill="#fff" opacity="0.06"/>
      <rect id="Rectangle_3787" data-name="Rectangle 3787" width="147" height="148" transform="translate(-26 1121)" fill="#fff" opacity="0.06"/>
      <rect id="Rectangle_3790" data-name="Rectangle 3790" width="147" height="148" transform="translate(-146 1347)" fill="#fff" opacity="0.06"/>
      <rect id="Rectangle_3788" data-name="Rectangle 3788" width="147" height="148" transform="translate(-105 1238)" fill="#fff" opacity="0.06"/>
      <rect id="Rectangle_3791" data-name="Rectangle 3791" width="147" height="148" transform="translate(-67 1464)" fill="#fff" opacity="0.06"/>
    </g>
    <g id="Group_1525" data-name="Group 1525" transform="translate(1453 -1075)">
      <rect id="Rectangle_3786-2" data-name="Rectangle 3786" width="147" height="148" transform="translate(-67 1173)" fill="#fff" opacity="0.16"/>
      <rect id="Rectangle_3789-2" data-name="Rectangle 3789" width="147" height="148" transform="translate(-105 1399)" fill="#fff" opacity="0.06"/>
      <rect id="Rectangle_3787-2" data-name="Rectangle 3787" width="147" height="148" transform="translate(-26 1121)" fill="#fff" opacity="0.06"/>
      <rect id="Rectangle_3790-2" data-name="Rectangle 3790" width="147" height="148" transform="translate(-146 1347)" fill="#fff" opacity="0.06"/>
      <rect id="Rectangle_3788-2" data-name="Rectangle 3788" width="147" height="148" transform="translate(-105 1238)" fill="#fff" opacity="0.06"/>
      <rect id="Rectangle_3791-2" data-name="Rectangle 3791" width="147" height="148" transform="translate(-67 1464)" fill="#fff" opacity="0.06"/>
    </g>
    <g id="Group_1564" data-name="Group 1564" transform="translate(104 -144)">
      <g id="Ellipse_853" data-name="Ellipse 853" transform="translate(1119 220)" fill="none" stroke="#fff" stroke-width="1" opacity="0.43">
        <circle cx="16" cy="16" r="16" stroke="none"/>
        <circle cx="16" cy="16" r="15.5" fill="none"/>
      </g>
      <g id="Ellipse_857" data-name="Ellipse 857" transform="translate(345 290)" fill="none" stroke="#fff" stroke-width="1" opacity="0.43">
        <circle cx="16" cy="16" r="16" stroke="none"/>
        <circle cx="16" cy="16" r="15.5" fill="none"/>
      </g>
      <g id="Ellipse_859" data-name="Ellipse 859" transform="translate(189 506)" fill="none" stroke="#fff" stroke-width="1" opacity="0.43">
        <circle cx="16" cy="16" r="16" stroke="none"/>
        <circle cx="16" cy="16" r="15.5" fill="none"/>
      </g>
      <g id="Ellipse_854" data-name="Ellipse 854" transform="translate(1098 308)" fill="none" stroke="#fff" stroke-width="1" opacity="0.43">
        <circle cx="8" cy="8" r="8" stroke="none"/>
        <circle cx="8" cy="8" r="7.5" fill="none"/>
      </g>
      <g id="Ellipse_858" data-name="Ellipse 858" transform="translate(324 378)" fill="none" stroke="#fff" stroke-width="1" opacity="0.43">
        <circle cx="8" cy="8" r="8" stroke="none"/>
        <circle cx="8" cy="8" r="7.5" fill="none"/>
      </g>
      <g id="Ellipse_855" data-name="Ellipse 855" transform="translate(1000 216)" fill="none" stroke="#fff" stroke-width="1" opacity="0.43">
        <circle cx="8" cy="8" r="8" stroke="none"/>
        <circle cx="8" cy="8" r="7.5" fill="none"/>
      </g>
      <g id="Ellipse_856" data-name="Ellipse 856" transform="translate(226 286)" fill="none" stroke="#fff" stroke-width="1" opacity="0.43">
        <circle cx="8" cy="8" r="8" stroke="none"/>
        <circle cx="8" cy="8" r="7.5" fill="none"/>
      </g>
      <g id="Ellipse_860" data-name="Ellipse 860" transform="translate(1129 498)" fill="none" stroke="#fff" stroke-width="1" opacity="0.43">
        <circle cx="8" cy="8" r="8" stroke="none"/>
        <circle cx="8" cy="8" r="7.5" fill="none"/>
      </g>
    </g>
  </svg>
  