<svg id="search-status" xmlns="http://www.w3.org/2000/svg" width="72.836" height="72.836" viewBox="0 0 72.836 72.836">
  <path id="Vector" d="M54.688,27.344A27.344,27.344,0,1,1,27.344,0,27.344,27.344,0,0,1,54.688,27.344Z" transform="translate(6.039 6.039)" fill="#e6ac22" opacity="0.4"/>
  <path id="Vector-2" data-name="Vector" d="M20.485,4.552H2.276A2.293,2.293,0,0,1,0,2.276,2.293,2.293,0,0,1,2.276,0H20.485a2.293,2.293,0,0,1,2.276,2.276A2.293,2.293,0,0,1,20.485,4.552Z" transform="translate(22.003 26.555)" fill="#e6ac22"/>
  <path id="Vector-3" data-name="Vector" d="M11.381,4.552h-9.1A2.293,2.293,0,0,1,0,2.276,2.293,2.293,0,0,1,2.276,0h9.1a2.293,2.293,0,0,1,2.276,2.276A2.293,2.293,0,0,1,11.381,4.552Z" transform="translate(22.003 35.659)" fill="#e6ac22"/>
  <path id="Vector-4" data-name="Vector" d="M12.115,2.883C11.114,1.032,8.989,0,6.136,0a6.13,6.13,0,0,0-5.1,2.4A6.159,6.159,0,0,0,.37,7.982c1.3,3.945,3.581,4.825,4.825,4.977a3.485,3.485,0,0,0,.577.03c1.335,0,3.4-.577,5.4-3.581C12.783,7.071,13.086,4.734,12.115,2.883Z" transform="translate(54.621 54.627)" fill="#e6ac22"/>
  <path id="Vector-5" data-name="Vector" d="M0,0H72.836V72.836H0Z" fill="none" opacity="0"/>
</svg>
