<svg xmlns="http://www.w3.org/2000/svg" width="74.836" height="74.836" viewBox="0 0 74.836 74.836">
  <path id="Vector" d="M40.38,0H13.938A13.953,13.953,0,0,0,0,13.938V43.28A13.973,13.973,0,0,0,13.938,57.218H40.349A13.953,13.953,0,0,0,54.287,43.28V13.938A13.906,13.906,0,0,0,40.38,0Z" transform="translate(10.259 11.381)" fill="#e6ac22" opacity="0.4"/>
  <path id="Vector-2" data-name="Vector" d="M20.549,0H5.893A5.882,5.882,0,0,0,0,5.862V8.793a5.855,5.855,0,0,0,5.862,5.862H20.549a5.855,5.855,0,0,0,5.862-5.862V5.862A5.836,5.836,0,0,0,20.549,0Z" transform="translate(24.197 6.236)" fill="#e6ac22"/>
  <path id="Vector-3" data-name="Vector" d="M0,0H74.836V74.836H0Z" fill="none" opacity="0"/>
  <path id="Path_53464" data-name="Path 53464" d="M-.241-10.017h-2.94a3.018,3.018,0,0,0-3.213-2.6,3.408,3.408,0,0,0-3,1.554,6.493,6.493,0,0,0-.9,3.633A5.908,5.908,0,0,0-9.166-3.528,3.327,3.327,0,0,0-6.5-2.373a3.376,3.376,0,0,0,2.31-.756A3.192,3.192,0,0,0-3.181-5.292h3a5.39,5.39,0,0,1-2.1,4.221A6.823,6.823,0,0,1-6.583.231a6.242,6.242,0,0,1-5.208-2.352,8.472,8.472,0,0,1-1.6-5.376,8.008,8.008,0,0,1,2.1-5.922A6.408,6.408,0,0,1-6.52-15.267a6.228,6.228,0,0,1,5.271,2.331A5.321,5.321,0,0,1-.241-10.017ZM8.747,0h-2.6L1.061-15.036H4.168L7.508-3.7l3.276-11.34h3.129Z" transform="translate(37.418 50.531)" fill="#e6ac22"/>
</svg>
