<svg id="send-2" xmlns="http://www.w3.org/2000/svg" width="77.82" height="77.82" viewBox="0 0 77.82 77.82">
  <path id="Vector" d="M14.766,11.046l29.247-9.76C57.145-3.092,64.279,4.074,59.934,17.207l-9.76,29.247c-6.55,19.682-17.315,19.682-23.865,0l-2.886-8.69-8.69-2.886C-4.916,28.361-4.916,17.628,14.766,11.046Z" transform="translate(8.289 8.28)" fill="#e6ac22" opacity="0.4"/>
  <path id="Vector-2" data-name="Vector" d="M0,12.386,12.354,0" transform="translate(39.299 25.324)" fill="#e6ac22"/>
  <path id="Vector-3" data-name="Vector" d="M2.424,17.242a2.4,2.4,0,0,1-1.719-.713,2.446,2.446,0,0,1,0-3.437L13.027.705a2.43,2.43,0,0,1,3.437,3.437L4.142,16.529A2.548,2.548,0,0,1,2.424,17.242Z" transform="translate(36.875 22.9)" fill="#e6ac22"/>
  <path id="Vector-4" data-name="Vector" d="M0,0H77.82V77.82H0Z" fill="none" opacity="0"/>
</svg>
