<svg id="chart-success" xmlns="http://www.w3.org/2000/svg" width="67.586" height="67.586" viewBox="0 0 67.586 67.586">
  <g id="chart-success-2" data-name="chart-success" transform="translate(5.632 5.632)">
    <path id="Vector" d="M14,0H5.717C2.14,0,0,2.14,0,5.717V14c0,3.576,2.14,5.717,5.717,5.717H14c3.576,0,5.717-2.14,5.717-5.717V5.717C19.713,2.14,17.572,0,14,0Zm1.859,6.9L9.18,14.7a1.379,1.379,0,0,1-1.042.507H8.082a1.446,1.446,0,0,1-1.042-.422l-3.07-3.041a1.462,1.462,0,0,1,0-2.056,1.437,1.437,0,0,1,2.056,0L8,11.63l5.632-6.59a1.467,1.467,0,0,1,2.056-.169A1.433,1.433,0,0,1,15.855,6.9Z" transform="translate(39.425 39.425)" fill="#e6ac22"/>
    <path id="Vector-2" data-name="Vector" d="M39.425,53.421V45.142c0-3.576,2.14-5.717,5.717-5.717h8.279a6.577,6.577,0,0,1,2.9.62V16.361C56.322,6.111,50.211,0,39.96,0h-23.6C6.111,0,0,6.111,0,16.361V39.932c0,10.279,6.111,16.39,16.361,16.39H40.045A6.577,6.577,0,0,1,39.425,53.421Z" fill="#e6ac22" opacity="0.4"/>
    <path id="Vector-3" data-name="Vector" d="M2.112,12.672A2.127,2.127,0,0,1,0,10.56V2.112A2.127,2.127,0,0,1,2.112,0,2.127,2.127,0,0,1,4.224,2.112V10.56A2.127,2.127,0,0,1,2.112,12.672Z" transform="translate(11.968 21.825)" fill="#e6ac22"/>
    <path id="Vector-4" data-name="Vector" d="M2.112,12.672A2.127,2.127,0,0,1,0,10.56V2.112A2.127,2.127,0,0,1,2.112,0,2.127,2.127,0,0,1,4.224,2.112V10.56A2.127,2.127,0,0,1,2.112,12.672Z" transform="translate(26.049 21.825)" fill="#e6ac22"/>
    <path id="Vector-5" data-name="Vector" d="M2.112,12.672A2.127,2.127,0,0,1,0,10.56V2.112A2.127,2.127,0,0,1,2.112,0,2.127,2.127,0,0,1,4.224,2.112V10.56A2.127,2.127,0,0,1,2.112,12.672Z" transform="translate(40.129 21.825)" fill="#e6ac22"/>
  </g>
  <path id="Vector-6" data-name="Vector" d="M0,0H67.586V67.586H0Z" fill="none" opacity="0"/>
</svg>
